<?xml version="1.0" encoding="utf-8"?>
<svg version="1.1" xmlns="http://www.w3.org/2000/svg" width="75" height="25" viewBox="0 0 745 245">
	<path d="M0 0 C5.01158457 2.82047318 7.76317602 5.57539345 9.75 11 C10.84617869 15.4610655 11.60009976 19.95807829 12.33447266 24.48876953 C18.94496712 64.43914909 32.61511369 102.5282496 55.75 136 C56.13865234 136.56976563 56.52730469 137.13953125 56.92773438 137.7265625 C62.60322259 146.02502192 68.71787642 153.81638612 75.33837891 161.38354492 C76.33660474 162.52661882 77.32780321 163.67584756 78.31396484 164.8293457 C82.98704448 170.25921851 87.93284594 175.37542274 93 180.4375 C93.83829346 181.27498779 94.67658691 182.11247559 95.5402832 182.9753418 C102.02289861 189.39405204 108.62512694 195.32194484 116.046875 200.6484375 C121.31179082 204.43379668 124.64315307 207.6794592 126.75 214 C127.44509572 221.05351227 127.25388224 227.27006093 122.75 233 C117.18502638 238.22286459 112.33444223 240.50677847 104.59375 240.40625 C98.82240567 239.58177224 93.45425952 237.0278959 88.06005859 234.89404297 C65.75008102 226.25959593 42.51411353 220.63928872 18.75 218 C17.595 217.86851562 16.44 217.73703125 15.25 217.6015625 C-28.20941433 213.66039012 -74.2907812 220.3836913 -114.41772461 237.56176758 C-121.20662666 240.36967614 -126.95375482 241.09874839 -134 238.75 C-140.85064677 235.0611902 -143.99589348 231.43375556 -146.25 224 C-147.36055622 218.11816523 -146.22464497 212.96689603 -143.38671875 207.73828125 C-138.93015624 202.02703752 -132.88485377 197.88306468 -127.16943359 193.50146484 C-123.80379056 190.86871177 -120.67791571 187.98857522 -117.53515625 185.09765625 C-115.97813143 183.66838732 -114.40157579 182.26017409 -112.80859375 180.87109375 C-90.29634542 161.17728026 -72.94199651 135.41656184 -59.25 109 C-58.8674707 108.26233398 -58.48494141 107.52466797 -58.09082031 106.76464844 C-44.2961474 79.775071 -35.46592034 50.28223836 -31.11035156 20.33666992 C-29.98672091 13.17064742 -28.57663 6.26534721 -22.48730469 1.66967773 C-14.99212918 -2.78635542 -7.98493255 -3.55681599 0 0 Z M8.75 30 C8.54246094 30.99515625 8.33492187 31.9903125 8.12109375 33.015625 C1.00439932 65.83769219 -14.34355489 93.97413154 -35.25 120 C-35.72099121 120.58958496 -36.19198242 121.17916992 -36.67724609 121.78662109 C-48.88236121 136.92410566 -62.86847875 151.10525114 -78.25 163 C-79.40076705 163.95789345 -80.54760576 164.92051736 -81.69140625 165.88671875 C-92.65398554 175.09325263 -104.33166939 183.08734186 -116.25 191 C-117.46630003 191.8109667 -118.68247456 192.6221217 -119.8984375 193.43359375 C-120.67445312 193.95050781 -121.45046875 194.46742188 -122.25 195 C-119.69276435 196.27861783 -118.89051055 195.81795722 -116.171875 195.07421875 C-115.34768066 194.85540039 -114.52348633 194.63658203 -113.67431641 194.41113281 C-112.35052979 194.05293457 -112.35052979 194.05293457 -111 193.6875 C-48.61860295 177.48367372 21.6800885 195.958593 77.20874023 225.80273438 C78.6949926 226.58946472 80.21939199 227.30348737 81.75 228 C82.41 227.67 83.07 227.34 83.75 227 C83.25371094 226.5875 82.75742188 226.175 82.24609375 225.75 C81.56675781 225.1725 80.88742188 224.595 80.1875 224 C79.52621094 223.443125 78.86492187 222.88625 78.18359375 222.3125 C66.03721861 210.77051912 55.90648482 196.36363641 47.75439453 181.78564453 C46.79605989 180.08188675 45.80311909 178.3977327 44.80859375 176.71484375 C29.36020937 149.53192901 21.41005296 118.51957266 15.75 88 C15.60079102 87.21544434 15.45158203 86.43088867 15.29785156 85.62255859 C11.89823717 67.3086359 11.08270969 48.55223305 9.75 30 C9.42 30 9.09 30 8.75 30 Z " fill="#FEC10E" transform="translate(147.25,4)"/>
	<path d="M0 0 C16.01212518 -0.0927468 32.02413891 -0.16405539 48.03646755 -0.20724869 C55.47191471 -0.22784057 62.90719151 -0.25589615 70.3425293 -0.30175781 C76.82605978 -0.34172947 83.30946682 -0.36745733 89.79311711 -0.37635398 C93.22361195 -0.38155139 96.65375378 -0.39369555 100.08413506 -0.42292023 C103.92145454 -0.45202472 107.75804659 -0.45595285 111.59545898 -0.45410156 C112.72259308 -0.46848267 113.84972717 -0.48286377 115.01101685 -0.49768066 C124.34881388 -0.44904561 131.53466097 1.93749249 138.49609375 8.28515625 C143.60420282 14.10972738 145.152314 20.76639797 145.11352539 28.31713867 C145.11367142 29.05884811 145.11381744 29.80055756 145.1139679 30.56474304 C145.11327134 33.01584805 145.10549097 35.46687702 145.09765625 37.91796875 C145.09579116 39.61761941 145.09436768 41.31727061 145.09336853 43.016922 C145.08955055 47.49019861 145.07972638 51.96344276 145.06866455 56.43670654 C145.05843499 61.00141969 145.0538676 65.56613807 145.04882812 70.13085938 C145.03810349 79.08725385 145.02103567 88.04362422 145 97 C129.13554299 97.09363824 113.27116118 97.1640743 97.40649605 97.20724869 C90.03945781 97.2278324 82.67259175 97.25587218 75.30566406 97.30175781 C68.88108762 97.34175468 62.45663594 97.36746325 56.03193843 97.37635398 C52.63326809 97.38154716 49.23495453 97.39366392 45.83639908 97.42292023 C42.03280959 97.45206319 38.22995316 97.45595125 34.42626953 97.45410156 C33.31208145 97.46848267 32.19789337 97.48286377 31.04994202 97.49768066 C22.46430144 97.45266297 15.8639226 95.551647 8.6875 90.8125 C1.97681848 83.78969376 -0.38316473 76.49098506 -0.28125 66.94921875 C0.42122482 59.58298974 3.66388309 53.09895616 9 48 C15.83956396 43.56091793 21.16553533 41.84992131 29.3269043 41.88647461 C30.17590302 41.88632858 31.02490173 41.88618256 31.89962769 41.8860321 C34.70785063 41.88672917 37.51600738 41.89451194 40.32421875 41.90234375 C42.27049219 41.90420866 44.21676609 41.90563222 46.16304016 41.90663147 C51.28733617 41.91045088 56.41160386 41.92027627 61.53588867 41.93133545 C66.76415626 41.94156194 71.99242842 41.94613175 77.22070312 41.95117188 C87.48048119 41.96189903 97.74023824 41.97896857 108 42 C107.91256271 39.12361482 107.8056265 36.25015438 107.6875 33.375 C107.66494141 32.56675781 107.64238281 31.75851563 107.61914062 30.92578125 C107.39556674 25.92585611 106.72109199 22.34702843 104 18 C100.58406889 14.90431243 97.51770504 13.883084 92.95674133 13.84178162 C92.1364444 13.8319928 91.31614746 13.82220398 90.47099304 13.81211853 C89.12663933 13.80348534 89.12663933 13.80348534 87.75512695 13.79467773 C86.80859253 13.78477814 85.86205811 13.77487854 84.88684082 13.76467896 C81.75401319 13.73305761 78.62117039 13.70830394 75.48828125 13.68359375 C73.31780093 13.66302478 71.14732463 13.64202832 68.97685242 13.62062073 C63.26076504 13.56539423 57.54464147 13.51598745 51.82849121 13.46777344 C45.99695613 13.41756267 40.16547367 13.36187438 34.33398438 13.30664062 C22.88936786 13.19905196 11.44470568 13.09760852 0 13 C0 8.71 0 4.42 0 0 Z M39.44140625 60.67578125 C37.16372028 64.91733868 36.29859391 68.09015738 37 73 C38.71624881 77.82377623 41.09259501 80.61201005 45.6441803 83.14179993 C50.7943094 85.01793721 56.40078317 84.47810068 61.80859375 84.390625 C63.14379525 84.38315338 64.4790078 84.3774648 65.81422424 84.37347412 C69.30792157 84.35828979 72.80094089 84.31907259 76.29437256 84.2746582 C79.86737738 84.23354825 83.44049633 84.21520973 87.01367188 84.1953125 C94.00971099 84.15469689 101.00389469 84.07639059 108 84 C108 74.43 108 64.86 108 55 C100.30435563 54.91597113 92.61038555 54.8358528 84.91468048 54.79299927 C81.33053331 54.77193098 77.74676837 54.7438071 74.1628418 54.69824219 C70.70687671 54.65458221 67.25128083 54.63082094 63.79506111 54.62049103 C61.84359168 54.60957084 59.8922695 54.57837692 57.94102478 54.54681396 C50.32766494 54.54489829 44.86932492 54.83974839 39.44140625 60.67578125 Z " fill="#008FD5" transform="translate(297,147)"/>
	<path d="M0 0 C1.57121864 -0.002062 1.57121864 -0.002062 3.17417908 -0.00416565 C4.32288483 -0.00057037 5.47159058 0.0030249 6.65510559 0.00672913 C8.46992683 0.00651009 8.46992683 0.00651009 10.32141113 0.00628662 C13.63933383 0.00686433 16.95719448 0.01188312 20.27510619 0.01886058 C23.74245379 0.02510756 27.20980219 0.02569898 30.67715454 0.02688599 C37.24318296 0.02999533 43.80919474 0.03820338 50.37521583 0.04823548 C57.85035248 0.05940892 65.32548992 0.06491017 72.80063283 0.06993091 C88.17767076 0.08038631 103.55469104 0.09817928 118.93171692 0.12025452 C118.93171692 4.41025452 118.93171692 8.70025452 118.93171692 13.12025452 C117.12886734 13.12905388 117.12886734 13.12905388 115.28959656 13.13803101 C103.95990231 13.19525704 92.63040003 13.26801827 81.30090141 13.35596943 C75.4763566 13.40068675 69.65188197 13.43994007 63.82722473 13.46669006 C58.20554922 13.49270915 52.58414355 13.53310217 46.96263504 13.58344078 C44.81849144 13.60011884 42.67430116 13.61162725 40.53010178 13.61786842 C37.52550251 13.62749908 34.52159503 13.65554675 31.51716614 13.68788147 C30.63171616 13.68644638 29.74626617 13.68501129 28.83398438 13.68353271 C23.79646211 13.76014551 20.28863763 14.31582289 15.93171692 17.12025452 C12.58170224 20.9110606 11.25383684 23.9626412 11.54890442 29.09681702 C12.25615991 32.83516748 13.63930784 35.04360023 15.93171692 38.12025452 C20.53396108 40.99998975 24.06538868 41.49310275 29.4466095 41.489151 C30.17430038 41.49291748 30.90199127 41.49668396 31.6517334 41.50056458 C33.22310922 41.50697214 34.79452383 41.50669049 36.36590004 41.50037956 C38.86007974 41.49122408 41.35351482 41.50154434 43.84765625 41.51699829 C50.93564261 41.55696875 58.02356818 41.55830643 65.11164856 41.55604553 C69.45647643 41.55599421 73.80090274 41.57527231 78.14562035 41.6053791 C80.59020087 41.61613467 83.03399177 41.60411502 85.47854614 41.59155273 C95.18072095 41.61445179 102.04210369 42.82916869 110.18171692 48.30775452 C116.98143061 55.26200716 119.3061066 62.63190026 119.21687317 72.16712952 C118.57728778 78.79078092 115.78918715 85.51844061 110.93171692 90.12025452 C104.5492076 94.47487626 99.57411929 97.24846105 91.78114319 97.24050903 C90.74070358 97.2418837 89.70026398 97.24325836 88.6282959 97.24467468 C87.49253616 97.24107941 86.35677643 97.23748413 85.18659973 97.23377991 C83.98632645 97.23392593 82.78605316 97.23407196 81.54940796 97.23422241 C78.26254253 97.23364536 74.97571974 97.22863197 71.6888628 97.22164845 C68.25221759 97.21539481 64.81557153 97.21480952 61.37892151 97.21362305 C54.87313345 97.21051567 48.36736222 97.20231026 41.86158156 97.19227356 C34.4541351 97.18109402 27.04668782 97.17559733 19.63923502 97.17057812 C4.40338565 97.16012716 -10.83244589 97.14233762 -26.06828308 97.12025452 C-26.06828308 92.83025452 -26.06828308 88.54025452 -26.06828308 84.12025452 C-24.26210258 84.11145515 -24.26210258 84.11145515 -22.41943359 84.10247803 C-11.07471153 84.04527846 0.26981834 83.97253117 11.6143446 83.8845396 C17.44676521 83.83980189 23.27911543 83.80055311 29.11164856 83.77381897 C34.73980361 83.74782016 40.36768821 83.70744166 45.99567604 83.65706825 C48.1434372 83.64037644 50.29124515 83.62887661 52.43906212 83.62264061 C55.44626122 83.61302487 58.4527648 83.58499525 61.45979309 83.55262756 C62.79336098 83.5547802 62.79336098 83.5547802 64.15386963 83.55697632 C68.98786816 83.48333601 71.89664753 83.04379078 75.93171692 80.12025452 C76.59171692 80.12025452 77.25171692 80.12025452 77.93171692 80.12025452 C80.21138271 75.2569675 81.80885002 70.20952832 80.31062317 64.93275452 C78.0993763 59.94139228 76.06473887 58.27274387 70.93171692 56.12025452 C67.36974818 55.67927069 67.36974818 55.67927069 63.52449036 55.75135803 C62.80815933 55.74759155 62.09182831 55.74382507 61.35379028 55.73994446 C59.80697178 55.73353738 58.26011387 55.73381808 56.71329498 55.74012947 C54.25664244 55.74928921 51.80074525 55.73895941 49.34413147 55.72351074 C42.36275842 55.68355559 35.38144707 55.6822002 28.39997864 55.6844635 C24.11998254 55.68451488 19.8403931 55.6652064 15.56050873 55.63512993 C13.15530106 55.62439163 10.75089917 55.63638437 8.34571838 55.6489563 C-2.33112801 55.62402491 -11.47564614 54.36502178 -19.59953308 46.83509827 C-26.06349982 39.28807327 -26.66982563 30.67683619 -26.06828308 21.12025452 C-24.87446147 14.52685444 -20.99873931 9.52349364 -16.06828308 5.12025452 C-10.96865208 1.87333349 -6.07368866 -0.00614124 0 0 Z " fill="#008FD5" transform="translate(477.0682830810547,146.87974548339844)"/>
	<path d="M0 0 C1.53793968 -0.00043808 1.53793968 -0.00043808 3.10694885 -0.00088501 C6.47242908 0.00050059 9.83768378 0.01602555 13.203125 0.03173828 C15.54581583 0.03547114 17.88850822 0.03831683 20.23120117 0.04031372 C26.37966262 0.04792862 32.52802871 0.06755872 38.67645264 0.08972168 C44.95746572 0.1102263 51.2384943 0.1193253 57.51953125 0.12939453 C69.83077093 0.15080662 82.14194002 0.18491667 94.453125 0.22705078 C94.453125 4.51705078 94.453125 8.80705078 94.453125 13.22705078 C93.48783371 13.23069641 92.52254242 13.23434204 91.52799988 13.23809814 C82.39250293 13.2751784 73.25733901 13.33309221 64.12209606 13.41095352 C59.42651745 13.45031739 54.73112327 13.48255993 50.03540039 13.49804688 C45.49640652 13.51328695 40.95792005 13.54786133 36.41915321 13.5953598 C34.69502507 13.61009826 32.97082446 13.61808743 31.24663353 13.61893463 C18.4556727 13.63153058 7.70108288 14.62055728 -2.5390625 23.17236328 C-9.50122833 30.29706994 -12.55159115 38.65295729 -12.921875 48.47705078 C-12.74093837 58.32678882 -9.51962706 67.14559212 -2.546875 74.22705078 C5.95154498 81.40421928 15.46568444 83.65611637 26.3984375 83.73876953 C27.74227005 83.76569633 27.74227005 83.76569633 29.11325073 83.79316711 C31.93482959 83.84673398 34.7562447 83.88099146 37.578125 83.91455078 C39.50783504 83.94777135 41.43752361 83.98226529 43.3671875 84.01806641 C48.06251654 84.10479284 52.75713713 84.16531749 57.453125 84.22705078 C57.453125 72.34705078 57.453125 60.46705078 57.453125 48.22705078 C69.663125 48.22705078 81.873125 48.22705078 94.453125 48.22705078 C94.453125 64.39705078 94.453125 80.56705078 94.453125 97.22705078 C69.01968335 97.38748602 69.01968335 97.38748602 58.11914062 97.42236328 C50.70178683 97.44620884 43.28463188 97.47431818 35.86743164 97.52880859 C29.88275164 97.57249631 23.89828512 97.59623625 17.91345787 97.60655975 C15.63826834 97.6139101 13.36308955 97.62826286 11.08799171 97.64997101 C-7.8833142 97.82367251 -24.23548729 96.22040765 -38.546875 82.22705078 C-49.20217231 69.13625694 -51.85232057 55.70191973 -50.546875 39.22705078 C-48.20073621 26.70488835 -40.91904176 15.56463625 -30.546875 8.22705078 C-20.46216454 2.25338984 -11.59448119 -0.08747639 0 0 Z " fill="#008FD5" transform="translate(650.546875,146.77294921875)"/>
	<path d="M0 0 C5.94209852 3.23442377 8.65320326 7.70960978 10.75 14 C10.9907721 53.39031508 -10.31944789 90.19331477 -34.25 120 C-34.71567383 120.58426758 -35.18134766 121.16853516 -35.66113281 121.77050781 C-42.21764027 129.92453993 -49.44498347 137.39050535 -56.8125 144.8125 C-58.10607422 146.12009277 -58.10607422 146.12009277 -59.42578125 147.45410156 C-65.3935907 153.39252407 -71.67784057 158.7461984 -78.25 164 C-79.52063078 165.06068305 -80.78801445 166.12527926 -82.05078125 167.1953125 C-97.00243343 179.7320858 -113.12736034 190.65599974 -130.25 200 C-131.15621094 200.58265625 -132.06242188 201.1653125 -132.99609375 201.765625 C-134.11177734 202.37664062 -134.11177734 202.37664062 -135.25 203 C-135.91 202.67 -136.57 202.34 -137.25 202 C-136.404375 201.28714844 -135.55875 200.57429687 -134.6875 199.83984375 C-125.394453 192.00595574 -125.394453 192.00595574 -116.25 184 C-115.32574219 183.18015625 -114.40148437 182.3603125 -113.44921875 181.515625 C-90.82019898 161.26094074 -73.18071788 135.87713733 -59.25 109 C-58.8674707 108.26233398 -58.48494141 107.52466797 -58.09082031 106.76464844 C-44.2961474 79.775071 -35.46592034 50.28223836 -31.11035156 20.33666992 C-29.98672091 13.17064742 -28.57663 6.26534721 -22.48730469 1.66967773 C-14.99212918 -2.78635542 -7.98493255 -3.55681599 0 0 Z " fill="#EC1C24" transform="translate(147.25,4)"/>
	<path d="M0 0 C0.95455078 0.48758789 1.90910156 0.97517578 2.89257812 1.47753906 C7.74475139 4.04105108 11.58180565 6.4674908 15.1875 10.625 C11.77022417 10.00619805 8.59850562 9.15154728 5.328125 7.98828125 C-15.97660176 0.55733602 -37.363888 -4.88181345 -59.8125 -7.375 C-61.545 -7.57222656 -61.545 -7.57222656 -63.3125 -7.7734375 C-106.77191433 -11.71460988 -152.8532812 -4.9913087 -192.98022461 12.18676758 C-199.76912666 14.99467614 -205.51625482 15.72374839 -212.5625 13.375 C-219.41314677 9.6861902 -222.55839348 6.05875556 -224.8125 -1.375 C-225.93569588 -7.32377816 -224.78512686 -12.69468331 -221.83984375 -17.95703125 C-208.92905677 -33.35544578 -179.74090381 -35.76708322 -161.11328125 -37.7734375 C-105.33001462 -42.48034939 -49.16142386 -25.30413659 0 0 Z " fill="#008ED4" transform="translate(225.8125,229.375)"/>
</svg>
